<?xml version="1.0" encoding="iso-8859-1"?>
<!-- Generator: Adobe Illustrator 21.0.2, SVG Export Plug-In . SVG Version: 6.00 Build 0)  -->
<svg version="1.1" id="Layer_1" xmlns="http://www.w3.org/2000/svg" xmlns:xlink="http://www.w3.org/1999/xlink" x="0px" y="0px"
	 viewBox="0 0 216 216" style="enable-background:new 0 0 216 216;" xml:space="preserve">
<g>
	<path style="fill:#F1F2F2;stroke:#000000;stroke-width:1.2081;stroke-linecap:round;stroke-miterlimit:10;" d="M18.456,75.414
		l93.428-29.196c1.082-0.334,2.68-0.693,4.631-0.667c1.756,0.024,3.206,0.351,4.228,0.667
		c25.706,11.276,51.412,22.552,77.119,33.827c1.477,0.837,2.277,2.443,2.014,3.977c-0.299,1.737-1.822,2.567-2.014,2.668
		c-30.472,10.605-60.943,21.209-91.415,31.814c-1.806,0.731-4.918,1.725-8.885,1.686c-3.729-0.037-6.665-0.971-8.432-1.686
		c-23.558-11.813-47.117-23.626-70.675-35.438c-0.167-0.111-2.013-1.38-2.064-3.725C16.338,76.869,18.326,75.5,18.456,75.414z"/>
	<path style="fill:none;stroke:#000000;stroke-width:1.1243;stroke-miterlimit:10;" d="M99.618,107.372
		c-2.366,1.366-6.201,1.366-8.566,0c-2.366-1.366-2.366-3.58,0-4.946s6.201-1.366,8.566,0S101.984,106.007,99.618,107.372z"/>
	<path style="fill:none;stroke:#000000;stroke-width:0.4606;stroke-miterlimit:10;" d="M96.732,105.912
		c-0.969,0.559-2.54,0.559-3.509,0c-0.969-0.559-0.969-1.467,0-2.026c0.969-0.559,2.54-0.559,3.509,0
		C97.701,104.446,97.701,105.353,96.732,105.912z"/>
	
		<line style="fill:none;stroke:#000000;stroke-width:0.4179;stroke-linecap:round;stroke-miterlimit:10;" x1="92.982" y1="103.304" x2="94.542" y2="104.195"/>
	<path style="fill:#E6E7E8;stroke:#000000;stroke-width:1.2081;stroke-linecap:round;stroke-miterlimit:10;" d="M199.925,84.777
		c0,15.102,0,30.203,0,45.305c-0.02,0.94-0.201,3.042-1.635,5.059c-0.679,0.954-1.438,1.609-2.039,2.039
		c-49.107,18.159-90.793,33.092-90.793,33.092s-4.325,1.2-7.228,1.196c-3.072-0.005-7.445-1.576-7.445-1.576
		c-23.837-13.048-47.837-25.553-71.674-38.601c-0.434-0.322-0.992-0.809-1.51-1.51c-0.728-0.984-1.054-1.95-1.208-2.567V79.34
		c0.051,2.345,1.897,3.614,2.064,3.725c23.558,11.813,47.117,23.625,70.675,35.438c1.766,0.715,4.702,1.65,8.432,1.686
		c3.966,0.039,7.078-0.955,8.885-1.686c30.472-10.605,60.943-21.209,91.415-31.814C198.55,86.052,199.237,85.414,199.925,84.777z"/>
	<path style="fill:#BCBEC0;stroke:#000000;stroke-width:0.8762;stroke-linecap:round;stroke-miterlimit:10;" d="M182.032,133.758
		l-60.237,21.062c-0.343,0.067-1.351,0.216-2.455-0.301c-1.215-0.568-1.75-1.57-1.896-1.87l-0.032-19.821
		c0.47-2.412,2.502-4.952,4.515-5.644l60.648-20.847c0.312-0.018,1.034-0.016,1.753,0.425c1.295,0.795,1.43,2.311,1.442,2.484
		c-0.085,6.197-0.169,12.394-0.254,18.591c0.007,0.601-0.059,1.942-0.868,3.365C183.782,132.719,182.558,133.473,182.032,133.758z"
		/>
	<path style="fill:#D1D3D4;stroke:#000000;stroke-width:0.9061;stroke-miterlimit:10;" d="M154.575,126.668l-9.834,3.439
		c-0.056,0.011-0.221,0.035-0.401-0.049c-0.198-0.093-0.286-0.256-0.31-0.305l-0.005-3.236c0.077-0.394,0.408-0.808,0.737-0.921
		l9.901-3.404c0.051-0.003,0.169-0.003,0.286,0.069c0.211,0.13,0.233,0.377,0.235,0.406c-0.014,1.012-0.028,2.023-0.041,3.035
		c0.001,0.098-0.01,0.317-0.142,0.549C154.861,126.499,154.661,126.622,154.575,126.668z"/>
	<path style="fill:#D1D3D4;stroke:#000000;stroke-width:0.9061;stroke-miterlimit:10;" d="M154.575,136.302l-9.834,3.439
		c-0.056,0.011-0.221,0.035-0.401-0.049c-0.198-0.093-0.286-0.256-0.31-0.305l-0.005-3.236c0.077-0.394,0.408-0.808,0.737-0.921
		l9.901-3.404c0.051-0.003,0.169-0.003,0.286,0.069c0.211,0.13,0.233,0.377,0.235,0.406c-0.014,1.012-0.028,2.023-0.041,3.035
		c0.001,0.098-0.01,0.317-0.142,0.549C154.861,136.132,154.661,136.255,154.575,136.302z"/>
	<path d="M168.613,118.801c-0.296,1.128-1.447,2.292-2.572,2.6s-1.797-0.357-1.501-1.485s1.447-2.292,2.572-2.6
		C168.236,117.008,168.909,117.673,168.613,118.801z"/>
	
		<line style="fill:none;stroke:#000000;stroke-width:1.2081;stroke-linecap:round;stroke-miterlimit:10;" x1="25.906" y1="107.406" x2="25.906" y2="119.2"/>
	
		<line style="fill:none;stroke:#000000;stroke-width:1.2081;stroke-linecap:round;stroke-miterlimit:10;" x1="28.347" y1="108.616" x2="28.347" y2="120.41"/>
	
		<line style="fill:none;stroke:#000000;stroke-width:1.2081;stroke-linecap:round;stroke-miterlimit:10;" x1="30.788" y1="109.95" x2="30.788" y2="121.744"/>
	
		<line style="fill:none;stroke:#000000;stroke-width:1.2081;stroke-linecap:round;stroke-miterlimit:10;" x1="33.23" y1="111.133" x2="33.23" y2="122.927"/>
	
		<line style="fill:none;stroke:#000000;stroke-width:1.2081;stroke-linecap:round;stroke-miterlimit:10;" x1="35.671" y1="112.297" x2="35.671" y2="124.091"/>
	
		<line style="fill:none;stroke:#000000;stroke-width:1.2081;stroke-linecap:round;stroke-miterlimit:10;" x1="37.997" y1="113.452" x2="37.997" y2="125.246"/>
	
		<line style="fill:none;stroke:#000000;stroke-width:1.2081;stroke-linecap:round;stroke-miterlimit:10;" x1="40.438" y1="114.662" x2="40.438" y2="126.456"/>
	
		<line style="fill:none;stroke:#000000;stroke-width:1.2081;stroke-linecap:round;stroke-miterlimit:10;" x1="42.879" y1="115.996" x2="42.879" y2="127.79"/>
	
		<line style="fill:none;stroke:#000000;stroke-width:1.2081;stroke-linecap:round;stroke-miterlimit:10;" x1="45.321" y1="117.179" x2="45.321" y2="128.973"/>
	
		<line style="fill:none;stroke:#000000;stroke-width:1.2081;stroke-linecap:round;stroke-miterlimit:10;" x1="47.762" y1="118.342" x2="47.762" y2="130.136"/>
	
		<line style="fill:none;stroke:#000000;stroke-width:1.2081;stroke-linecap:round;stroke-miterlimit:10;" x1="50.087" y1="119.497" x2="50.087" y2="131.291"/>
	
		<line style="fill:none;stroke:#000000;stroke-width:1.2081;stroke-linecap:round;stroke-miterlimit:10;" x1="52.529" y1="120.707" x2="52.529" y2="132.501"/>
	
		<line style="fill:none;stroke:#000000;stroke-width:1.2081;stroke-linecap:round;stroke-miterlimit:10;" x1="54.97" y1="122.041" x2="54.97" y2="133.835"/>
	
		<line style="fill:none;stroke:#000000;stroke-width:1.2081;stroke-linecap:round;stroke-miterlimit:10;" x1="57.412" y1="123.224" x2="57.412" y2="135.018"/>
	
		<line style="fill:none;stroke:#000000;stroke-width:1.2081;stroke-linecap:round;stroke-miterlimit:10;" x1="59.853" y1="124.387" x2="59.853" y2="136.182"/>
	
		<line style="fill:none;stroke:#000000;stroke-width:1.2081;stroke-linecap:round;stroke-miterlimit:10;" x1="62.199" y1="125.542" x2="62.199" y2="137.336"/>
	
		<line style="fill:none;stroke:#000000;stroke-width:1.2081;stroke-linecap:round;stroke-miterlimit:10;" x1="64.64" y1="126.752" x2="64.64" y2="138.546"/>
	
		<line style="fill:none;stroke:#000000;stroke-width:1.2081;stroke-linecap:round;stroke-miterlimit:10;" x1="67.081" y1="128.086" x2="67.081" y2="139.88"/>
	
		<line style="fill:none;stroke:#000000;stroke-width:1.2081;stroke-linecap:round;stroke-miterlimit:10;" x1="69.523" y1="129.269" x2="69.523" y2="141.063"/>
	
		<line style="fill:none;stroke:#000000;stroke-width:1.2081;stroke-linecap:round;stroke-miterlimit:10;" x1="71.964" y1="130.432" x2="71.964" y2="142.226"/>
	
		<line style="fill:none;stroke:#000000;stroke-width:1.2081;stroke-linecap:round;stroke-miterlimit:10;" x1="74.29" y1="131.587" x2="74.29" y2="143.381"/>
</g>
</svg>
